<svg version="1.1" viewBox="0 0 88.9 25.3" xmlns="http://www.w3.org/2000/svg">
	<defs>
		<linearGradient id="a" x1="-32.408" x2="-32.408" y1="139.25" y2="126.42" gradientTransform="matrix(.7629 0 0 .7548 -19.73 -90.118)" gradientUnits="userSpaceOnUse">
			<stop stop-color="#fff" offset="0"/>
			<stop stop-color="#fff" stop-opacity="0" offset="1"/>
		</linearGradient>
	</defs>
	<g transform="translate(44.45 .62702)" fill-rule="evenodd">
		<rect x="-44.45" y="-.62702" width="88.9" height="25.3" fill="#b2e2f8"/>
		<rect x="-44.45" y="5.3059" width="88.9" height="19.367" fill="url(#a)"/>
		<ellipse cx="7.3" cy="6.4469" rx="7.3" ry="6.4469" fill="#f8ea6d"/>
	</g>
	<text transform="scale(1.0079 .99216)" x="5.8756633" y="16.988012" fill="#000000" font-family="Times" font-size="9.5697px" font-weight="bold" letter-spacing="0px" stroke="#ffffff" stroke-width=".2" word-spacing="0px" style="line-height:1.25" xml:space="preserve"><tspan x="5.8756633" y="16.988012" font-family="Times" font-weight="bold" stroke="#ffffff" stroke-width=".2">Blue Skies Designs</tspan></text>
	<g transform="translate(-271.44 -216.8)" stroke="#2e2013" stroke-width=".465">
		<path d="m304.25 221.61-.1587 8.7865" fill="#2a2016"/>
		<path d="m298.21 222.88 11.493.63477" fill="none"/>
	</g>
	<path d="m27.27 5.74c.69239-.72469 1.163-1.5663 2.3744-1.772l.12713.34379c-.0315.0845-.1633.1188-.22968.17539l.11693.16705c.11198-.0714.23208-.1364.30659-.23783l-.13918-.11982-.14235-.36064.15869-.0334.34661.38838c.0886.10464.0507.23076.0835.36332l.21299-.11693-.008-.29233c-.0752.0198-.1754.052-.25057.0171l-.33712-.38901c.85285-.53492 1.2406-1.3341 1.1807-2.2252.17956.0356.30865-.008.45203-.0295-.11373-.073-.26824-.0826-.31839-.25445-.0179-.16796-.1468-.26561-.40091-.28397-.27949.0793-.54387.0881-.95215.7684-1.1358.88413-1.7686 2.5228-2.5812 3.8918z" fill="#070707"/>
	<path d="m65.71 5.62c.0285-.13378.0842-.10353.17427-.15653.0839-.53159.49534-.4153.93619-.40751-.001-.32574-.0797-.68052.0827-.94494.84714-1.0875 1.7896-2.2125 2.6766-2.812-.20214.48758-.51332.9388-.84775 1.3823-.24683.41014-.33944.93043-.43432 1.4491.17249-.047.77473.22569.69324.28815.0219.12085.92738-.20306.88114-.28397.52175-1.0117.84878-1.1295 1.232-1.6746-.45487.70169-.52119 1.137-.53454 1.5076.0565.0352.11533.0632.15033.16286.64217.0564 1.3909-.047 2.1173-.11693-.42326.15499-.83059.38285-1.2684.49408-.70361.17876-1.4332.25459-2.0374.73152.45991.98214 1.8078 1.2032 3.012 1.5473-1.0326-.0107-2.0641-.0227-3.1183-.0118-.68593.11496-1.4122.19328-1.9866-.34338-.82452.009-1.1782-.36918-1.4594-.75216z" fill="#070707"/>
	<g transform="translate(-225.76 -238.32)" fill="none" stroke="#000" stroke-width=".15">
		<path d="m248.39 246.5c1.6328-1.1626 3.1904-2.4229 4.5102-3.9923 13.946 1.2724 28.832 3.5278 39.895-.11592"/>
		<path d="m249.76 248.62c3.2532-1.734 6.1361-3.8597 8.9535-7.3499 10.876.50245 19.055 2.8986 35.346-.4009"/>
		<path d="m250.6 251.83c4.2499-2.2552 8.4973-4.4651 12.993-8.9297 9.5933.74049 19.221 1.4708 29.799-1.2326"/>
	</g>
	<path d="m33.01 3.0616-.20154.013441c-.0075.18913-.11123.14949-.17053.24029-.02551.03003.17836.28583.23926.27543l-.0057.42269.0072-.42013c.0439-.03049.216-.00484.2744-.22376-.05531-.1084-.1729-.13039-.14311-.308zm-.13849.95185-.0093.5457.0021-.0005292zm-.0093.5457-.0863.026352.0041.26974h.19223l-.0011-.27336zm.1235-1.3296.11989.13126-.20464.18138-.20205-.19585.10852-.1111z" fill="#2a2016" stroke="#2b1e15" stroke-width=".0099998"/>
	<g transform="translate(-225.76 -238.32)" fill="none" stroke="#2a2016" stroke-width=".04">
		<path d="m258.39 242.77.55542-.006"/>
		<path d="m258.38 242.58.55542-.006"/>
		<path d="m258.38 242.39.55542-.006"/>
		<path d="m258.39 242.21.55542-.006"/>
	</g>
	<path d="m38.01 4.7-.20154.0134c-.008.18913-.11124.14949-.17053.24029-.0255.03.17836.28584.23926.27544l-.006.42271.007-.42013c.0439-.0305.216-.005.2744-.22376-.0553-.1084-.17294-.13039-.14314-.30799zm-.1385.95187-.009.54571.002-.00053zm-.009.54571-.0863.0264.004.26975h.19223l-.001-.27337zm.1235-1.3296.1199.13126-.20464.18138-.20206-.19585.10852-.1111z" fill="#2a2016" stroke="#2b1e15" stroke-width=".01"/>
	<g transform="translate(-225.76 -238.32)" fill="none" stroke="#2a2016" stroke-width=".04">
		<path d="m263.38 244.4.55542-.006"/>
		<path d="m263.37 244.21.55542-.006"/>
		<path d="m263.37 244.02.55542-.006"/>
		<path d="m263.38 243.84.55542-.006"/>
	</g>
	<path d="m27.32 4.14-.20154.0134c-.008.18913-.11123.14949-.17053.24029-.0255.03.17836.28584.23926.27544l-.006.42271.007-.42013c.0439-.0305.216-.005.2744-.22376-.0553-.1084-.17294-.13039-.14314-.30799zm-.13849.95188-.009.5457.002-.00053zm-.009.5457-.0863.0263.004.26975h.19224l-.001-.27337zm.12351-1.3296.11989.13126-.20464.18139-.20205-.19586.10851-.1111z" fill="#2a2016" stroke="#2b1e15" stroke-width=".01"/>
	<g transform="translate(-225.76 -238.32)" fill="none" stroke="#2a2016" stroke-width=".04">
		<path d="m252.69 243.84.55542-.006"/>
		<path d="m252.69 243.65.55542-.006"/>
		<path d="m252.68 243.46.55542-.006"/>
		<path d="m252.7 243.28.55542-.006"/>
	</g>
</svg>
