<svg version="1.1" viewBox="0 0 100 100" xmlns="http://www.w3.org/2000/svg">
	<g>
		<rect width="100" height="100" rx="6" ry="6" fill="#62a2bb"/>
		<circle cx="50" cy="50" r="21.618" fill="#f3c80c"/>
		<path d="m48.988 40.737c.10085-.47341.29796-.36637.6167-.55392.2969-1.8812 1.7529-1.4696 3.3129-1.4421-.0036-1.1527-.28204-2.4082.29265-3.3439 2.9978-3.8484 6.3329-7.8295 9.4718-9.9509-.71532 1.7254-1.8165 3.3222-3 4.8916-.87347 1.4514-1.2012 3.2926-1.5369 5.128.6104-.16632 2.7416.79866 2.4532 1.0197.0775.42766 3.2818-.71858 3.1181-1.0049 1.8463-3.5801 3.0036-3.997 4.3597-5.926-1.6097 2.4831-1.8444 4.0236-1.8916 5.335.19994.12456.40812.22365.53198.57632 2.2725.19958 4.922-.16632 7.4926-.41378-1.4978.54847-2.9392 1.3548-4.4885 1.7484-2.4899.63259-5.0717.90093-7.2098 2.5887 1.6275 3.4755 6.3973 4.2578 10.659 5.4755-3.6541-.03787-7.3043-.08033-11.035-.04176-2.4273.40681-4.9974.68397-7.0301-1.2151-2.9178.03185-4.1693-1.3064-5.1644-2.6617z" fill="#121212"/>
	</g>
</svg>
