<?xml version="1.0" standalone="no"?>
<!DOCTYPE svg PUBLIC "-//W3C//DTD SVG 20010904//EN"
 "http://www.w3.org/TR/2001/REC-SVG-20010904/DTD/svg10.dtd">
<svg version="1.0" xmlns="http://www.w3.org/2000/svg"
 width="700.000000pt" height="700.000000pt" viewBox="0 0 700.000000 700.000000"
 preserveAspectRatio="xMidYMid meet">
<metadata>
Created by potrace 1.11, written by Peter Selinger 2001-2013
</metadata>
<g transform="translate(0.000000,700.000000) scale(0.100000,-0.100000)"
fill="#000000" stroke="none">
<path d="M4940 6487 c-128 -100 -283 -241 -409 -373 l-105 -110 -95 33 c-1008
344 -2114 89 -2866 -662 -411 -412 -678 -928 -774 -1495 -196 -1160 354 -2307
1384 -2888 461 -261 1039 -387 1565 -342 782 67 1461 428 1953 1037 305 379
502 836 578 1343 29 192 32 542 6 730 -17 116 -41 251 -53 293 -5 16 6 17 133
17 79 0 132 4 123 9 -8 4 -71 23 -140 41 -69 18 -130 37 -136 42 -6 5 -19 36
-29 71 -59 212 -202 509 -347 725 -27 41 -48 76 -45 78 2 3 70 20 151 39 80
19 183 47 228 63 126 43 460 187 444 190 -8 2 -108 -6 -223 -18 -122 -13 -312
-24 -458 -27 l-250 -5 -14 25 c-7 13 -23 30 -35 36 -21 12 -21 16 -14 100 14
154 83 343 198 541 18 30 30 53 28 50 -3 -3 -31 -36 -63 -75 -33 -38 -93 -108
-135 -155 -104 -116 -149 -173 -205 -257 l-47 -72 -96 80 c-122 101 -262 197
-419 286 l-122 69 93 130 c50 71 116 167 145 213 51 80 161 287 161 304 0 15
-18 5 -110 -66z"/>
</g>
</svg>
